<svg xmlns="http://www.w3.org/2000/svg" xmlns:xlink="http://www.w3.org/1999/xlink" viewBox="0 0 1094.37 2235.85"><defs><style>.cls-1{fill:none;}.cls-2{fill:#31b6ff;}.cls-3{fill:#2a9ddb;}.cls-4{fill:#c2eb57;}.cls-5{fill:#ffef9c;}.cls-6{fill:url(#New_Pattern_Swatch_2);}</style><pattern id="New_Pattern_Swatch_2" data-name="New Pattern Swatch 2" width="83.1" height="101.19" patternTransform="translate(0 -144)" patternUnits="userSpaceOnUse" viewBox="0 0 83.09 101.19"><rect class="cls-1" width="83.1" height="101.19"/><path class="cls-2" d="M83.1,50.6h0A50.6,50.6,0,0,1,0,50.6v50.59H83.1Z"/><path class="cls-2" d="M41.55,21.72A50.53,50.53,0,0,0,83.1,0H0A50.53,50.53,0,0,0,41.55,21.72Z"/><path class="cls-3" d="M41.55,72.32A50.55,50.55,0,0,0,83.1,50.6h0V0A50.53,50.53,0,0,1,41.55,21.72,50.53,50.53,0,0,1,0,0V50.6A50.55,50.55,0,0,0,41.55,72.32Z"/></pattern></defs><g id="Layer_2" data-name="Layer 2"><g id="Layer_5" data-name="Layer 5"><rect class="cls-4" x="96.03" width="995.02" height="1644.45"/><path class="cls-5" d="M80.26,503h339c47.18,0,85.42-40.17,85.42-89.72V382.21c0-49.55,38.25-89.72,85.43-89.72H1074v909H80.26Z"/><path class="cls-4" d="M1022.36,957.52H533.79c-47.18,0-85.42-40.17-85.42-89.72V836.72c0-49.55-38.25-89.72-85.43-89.72H0V2235.85H1022.36Z"/><path class="cls-5" d="M376.16,1629.86h339c47.18,0,85.42-40.17,85.42-89.72v-31.08c0-49.55,38.25-89.72,85.43-89.72h191.14v323h-701Z"/><rect class="cls-5" x="69.76" y="1629.68" width="1022.36" height="112.68"/><path class="cls-6" d="M1094.37,1532h-80.31c-47.18,0-85.42,40.17-85.42,89.73v31.07c0,49.56-38.25,89.73-85.43,89.73h-339V1855h590.16Z"/><rect class="cls-6" x="69.76" y="1742.36" width="1022.36" height="468.57"/></g></g></svg>